<?xml version="1.0" encoding="UTF-8"?>
<svg width="483px" height="251px" viewBox="0 0 483 251" version="1.1" xmlns="http://www.w3.org/2000/svg" xmlns:xlink="http://www.w3.org/1999/xlink">
    <!-- Generator: Sketch 52.6 (67491) - http://www.bohemiancoding.com/sketch -->
    <title>HAH_LOGO</title>
    <desc>Created with Sketch.</desc>
    <g id="Page-1" stroke="none" stroke-width="1" fill="none" fill-rule="evenodd">
        <g id="HAH_LOGO">
            <g id="Group" transform="translate(173.000000, 0.000000)">
                <path d="M6.9,85 C10.5,91.8 15.3,97.8 21.2,102.7 L21.2,74.1 L6.9,85 Z" id="Path" fill="#97298E"></path>
                <path d="M21.2,14.1 C8.5,24.7 0.4,40.6 0.4,58.4 C0.4,63.3 1,68 2.1,72.5 L21.1,57.9 L21.1,14.1 L21.2,14.1 Z" id="Path" fill="#97298E"></path>
                <path d="M58,45.9 L34,64.2 L34,110.7 C41.3,114 49.4,115.9 58,115.9 C66.5,115.9 74.6,114 81.9,110.7 L81.9,64.2 L58,45.9 Z" id="Path" fill="#97298E"></path>
                <path d="M54.1,32.8 C56.4,31 59.6,31 61.9,32.8 L81.9,48.1 L81.9,6.1 C74.6,2.8 66.5,0.9 58,0.9 C49.4,0.9 41.3,2.8 34,6.1 L34,48.1 L54.1,32.8 Z" id="Path" fill="#97298E"></path>
                <path d="M113.8,72.6 C114.9,68.1 115.6,63.3 115.6,58.4 C115.6,40.6 107.5,24.6 94.7,14.1 L94.7,58 L113.8,72.6 Z" id="Path" fill="#97298E"></path>
                <path d="M94.7,102.7 C100.6,97.8 105.5,91.8 109,85 L94.7,74 L94.7,102.7 Z" id="Path" fill="#97298E"></path>
                <polygon id="Path" fill="#B9BBBD" points="21.2 83.9 34 74.1 34 64.2 21.2 74.1"></polygon>
                <polygon id="Path" fill="#B9BBBD" points="94.7 84 81.9 74.1 81.9 64.2 94.7 74.1"></polygon>
            </g>
            <path d="M475.4,183.9 C471.4,183.9 468.2,187.1 468.2,191.2 C468.2,195.3 471.4,198.5 475.4,198.5 C479.4,198.5 482.6,195.3 482.6,191.2 C482.5,187.1 479.4,183.9 475.4,183.9 Z M475.5,197.3 C475.4,197.3 475.4,197.3 475.5,197.3 C472.2,197.3 469.6,194.6 469.6,191.1 C469.6,187.7 472.2,185 475.4,185 C478.6,185 481.2,187.7 481.2,191.2 C481.2,194.6 478.7,197.3 475.5,197.3 Z M475,187.1 C474,187.1 473.4,187.2 472.7,187.3 L472.7,195.4 L474,195.4 L474,191.9 L474.9,191.9 C475.9,191.9 476.4,192.3 476.6,193.3 C476.8,194.4 477,195.1 477.1,195.4 L478.4,195.4 C478.3,195.1 478.1,194.7 477.9,193.4 C477.7,192.2 477.3,191.6 476.5,191.4 L476.5,191.3 C477.4,191 478.1,190.4 478.1,189.3 C478.1,188.5 477.8,188 477.4,187.6 C477.1,187.3 476.3,187.1 475,187.1 Z M474,190.9 L474,188.2 C474.2,188.2 474.5,188.1 474.9,188.1 C476.3,188.1 476.9,188.8 476.9,189.5 C476.9,190.5 476,190.9 474.9,190.9 L474,190.9 Z" id="Shape" fill="#414042" fill-rule="nonzero"></path>
            <g id="Group" transform="translate(0.000000, 128.000000)" fill="#414042">
                <path d="M44.1,37.7 L6.6,37.7 L6.6,68.2 C6.1,68.5 5.1,68.7 3.7,68.7 C2.4,68.7 1.4,68.5 0.9,68.2 L0.9,4.9 C1.4,4.6 2.4,4.4 3.7,4.4 C5.1,4.4 6.1,4.6 6.6,4.9 L6.6,32.7 L44.1,32.7 L44.1,4.9 C44.6,4.6 45.6,4.4 46.9,4.4 C48.3,4.4 49.3,4.6 49.8,4.9 L49.8,68.2 C49.3,68.5 48.3,68.7 46.9,68.7 C45.6,68.7 44.6,68.5 44.1,68.2 L44.1,37.7 Z" id="Path"></path>
                <path d="M64.7,47.7 C64.9,59.8 72.1,65.5 82.9,65.5 C88.3,65.5 92.8,64 96.4,61.8 C96.6,63.7 95.9,65.8 95.1,66.9 C92.3,68.8 87.8,70.4 81.5,70.4 C67.4,70.4 59.2,61 59.2,47 C59.2,33.1 67.1,22.6 80.4,22.6 C91.8,22.6 97.2,30.2 97.2,40.5 C97.2,43.3 96.9,45.5 96.2,47.7 L64.7,47.7 Z M91.8,43 C92.5,36.1 90.5,27.3 80.1,27.3 C71.1,27.3 65.5,33.9 64.8,43 L91.8,43 Z" id="Shape" fill-rule="nonzero"></path>
                <path d="M113.6,70.4 C108.8,70.4 105.4,67.9 105.4,61.2 L105.4,1.9 C106.7,1.2 108.6,0.8 110.8,0.8 L110.8,60.4 C110.8,64.5 112.5,65.4 115.1,65.4 C117.4,65.4 119.3,64.7 120.8,63.4 C120.9,65.4 120.4,67.7 119.6,68.7 C118.2,69.6 116.2,70.4 113.6,70.4 Z" id="Path"></path>
                <path d="M130.8,29.7 C133,26 137.4,22.5 145,22.5 C154.7,22.5 163.7,28 163.7,44.9 C163.7,60.6 155.7,70.3 141,70.3 C137.2,70.3 133.4,69.6 131.1,68.5 L131.1,89.3 C130.6,89.6 129.7,89.8 128.4,89.8 C127.1,89.8 126.2,89.6 125.7,89.3 L125.7,24.5 C126.8,23.9 128.5,23.7 130.2,23.7 L130.6,29.7 L130.8,29.7 Z M131.1,63.8 C133.6,64.9 136.8,65.5 140.1,65.5 C153.2,65.5 158.2,56.9 158.2,45.4 C158.2,33.8 153.1,27.5 143.9,27.5 C137,27.5 133.5,31 131.1,34.6 L131.1,63.8 Z" id="Shape" fill-rule="nonzero"></path>
                <path d="M285.4,37.7 L247.9,37.7 L247.9,68.2 C247.4,68.5 246.4,68.7 245,68.7 C243.7,68.7 242.7,68.5 242.2,68.2 L242.2,4.9 C242.7,4.6 243.7,4.4 245,4.4 C246.4,4.4 247.4,4.6 247.9,4.9 L247.9,32.7 L285.4,32.7 L285.4,4.9 C285.9,4.6 286.9,4.4 288.2,4.4 C289.6,4.4 290.6,4.6 291.1,4.9 L291.1,68.2 C290.6,68.5 289.6,68.7 288.2,68.7 C286.9,68.7 285.9,68.5 285.4,68.2 L285.4,37.7 Z" id="Path"></path>
                <path d="M341.1,45.8 C341.1,61.7 333.4,70.3 320.9,70.3 C307.7,70.3 300.5,62 300.5,45.8 C300.5,31.1 308.4,22.6 320.9,22.6 C333.2,22.6 341.1,30.7 341.1,45.8 Z M321,65.5 C330.8,65.5 335.7,58 335.7,45.8 C335.7,34.5 330.3,27.4 321,27.4 C311.1,27.4 306.1,34.6 306.1,45.8 C306.1,58.2 311.1,65.5 321,65.5 Z" id="Shape" fill-rule="nonzero"></path>
                <path d="M354.5,68.2 C354,68.5 353.1,68.7 351.8,68.7 C350.5,68.7 349.6,68.5 349.1,68.2 L349.1,24.6 C350.2,24 351.9,23.8 353.6,23.8 L354,30.1 L354.3,30.1 C356.3,26.7 360.6,22.6 369.9,22.6 C375.7,22.6 381,24.2 383.6,31.1 L383.9,31.1 C385.9,27.3 390.4,22.6 400.2,22.6 C407.6,22.6 415.4,25.2 415.4,40.2 L415.4,68.3 C414.9,68.6 414,68.8 412.7,68.8 C411.4,68.8 410.5,68.6 410,68.3 L410,41.3 C410,32.9 407.5,27.6 398.7,27.6 C391.2,27.6 386.8,31.6 384.7,35.9 C384.9,36.7 385.1,38.8 385.1,40.7 L385.1,68.2 C384.6,68.5 383.7,68.7 382.4,68.7 C381.1,68.7 380.2,68.5 379.7,68.2 L379.7,41.3 C379.7,32.8 377.1,27.5 368.5,27.5 C361.2,27.5 356.6,31.5 354.6,35.3 L354.6,68.2 L354.5,68.2 Z" id="Path"></path>
                <path d="M428.4,47.7 C428.6,59.8 435.8,65.5 446.6,65.5 C452,65.5 456.5,64 460.1,61.8 C460.3,63.7 459.6,65.8 458.8,66.9 C456,68.8 451.5,70.4 445.2,70.4 C431.1,70.4 422.9,61 422.9,47 C422.9,33.1 430.8,22.6 444.1,22.6 C455.5,22.6 460.9,30.2 460.9,40.5 C460.9,43.3 460.6,45.5 459.9,47.7 L428.4,47.7 Z M455.6,43 C456.3,36.1 454.3,27.3 443.9,27.3 C434.9,27.3 429.3,33.9 428.6,43 L455.6,43 Z" id="Shape" fill-rule="nonzero"></path>
                <g transform="translate(176.000000, 27.000000)">
                    <path d="M25,34.2 C24.6,37.8 25.8,38.2 27.3,38.2 C28.8,38.2 29.5,37.8 30.5,37.2 C30.7,38.4 30.2,40 29.6,40.7 C28.9,41.2 27.7,41.6 26,41.6 C23.2,41.6 21.1,40.2 21.3,36.6 L21.1,36.6 C19.2,39.6 15.7,41.6 11,41.6 C5.4,41.6 0.9,38.6 0.9,28.8 C0.9,23 2.4,17.7 5.3,13.9 C8.6,9.5 13.1,7.6 18.6,7.6 C22.4,7.6 25.3,8.6 27.7,10.3 L25,34.2 Z M24,12.2 C22.5,11.3 20.8,10.9 18.4,10.9 C13.5,10.9 10.2,13 8.1,15.7 C5.6,19 4.6,24.2 4.6,28.5 C4.6,35 6.7,38.2 12,38.2 C16.6,38.2 19.2,35.8 21.4,32.6 L24,12.2 Z" id="Shape" fill-rule="nonzero"></path>
                    <path d="M39.1,9 L40.1,1.5 C41,0.8 42.2,0.5 43.6,0.5 L42.6,9 L51.7,9 C51.8,9.2 52,9.6 52,10.4 C52,11.5 51.7,12 51.5,12.3 L42.2,12.3 L39.9,31.8 C39.4,35.8 39.9,38.3 44,38.3 C46.2,38.3 48.3,37.6 50.2,35.8 C50.3,37.3 49.9,38.8 49.1,39.8 C47.3,41.1 45.6,41.7 43,41.7 C37.8,41.7 36,39.3 36,34.8 C36,33.9 36.1,32.9 36.2,32 L38.7,12.4 L34.3,12.4 C34.3,11.3 34.6,10 35.1,9.2 L39.1,9.2 L39.1,9 Z" id="Path"></path>
                </g>
            </g>
            <g id="Group" transform="translate(63.000000, 223.000000)" fill="#97298E">
                <path d="M13.5,4.4 C8.1,4.4 4.1,7.5 4.1,14.6 C4.1,21.6 7.8,24.7 13.1,24.7 C15.5,24.7 17.7,24.1 19.4,23.2 C19.4,24.1 19,25.5 18.5,26.3 C17,27.1 14.7,27.7 12.2,27.7 C5.1,27.7 0.8,22.9 0.8,14.8 C0.8,5.9 5.9,1.3 12.9,1.3 C14.9,1.3 17,1.7 18.4,2.5 C18.9,3.2 19.3,4.7 19.1,5.7 C17.3,4.9 15.5,4.4 13.5,4.4 Z" id="Path"></path>
                <path d="M32.6,25.6 C31.6,27 29.9,27.7 27.6,27.7 C24.5,27.7 21.9,26.2 21.9,22.4 C21.9,18.2 25,16.5 29,16.5 C30.2,16.5 31.5,16.6 32.6,17.1 L32.6,16.2 C32.6,13.2 31.5,12 28.7,12 C26.7,12 24.8,12.6 23.3,13.6 C23.1,12.7 23.2,11.3 23.7,10.5 C24.9,9.8 27,9.2 29.4,9.2 C33.6,9.2 35.8,11 35.8,15.9 L35.8,23.7 C35.8,24.7 36.3,25 37,25 C37.7,25 38.3,24.8 38.7,24.5 C38.8,25.4 38.6,26.5 38.1,27.2 C37.5,27.6 36.7,27.8 35.8,27.8 C34.2,27.8 33.3,27 33,25.7 L32.6,25.7 L32.6,25.6 Z M32.6,19.5 C31.7,19.2 30.7,19 29.5,19 C26.5,19 25,20.3 25,22.2 C25,24.1 26.5,24.9 28.4,24.9 C29.9,24.9 31.6,24.4 32.6,23 L32.6,19.5 Z" id="Shape" fill-rule="nonzero"></path>
                <path d="M49.7,9.1 C50.5,9.1 51.2,9.2 51.6,9.4 C51.9,9.9 52.1,10.5 52.1,11.4 C52.1,12 52,12.5 51.9,12.7 C51.3,12.4 50.5,12.2 49.7,12.2 C47.5,12.2 46,13.6 45.1,16.2 L45.1,26.8 C44.8,27 44.3,27 43.6,27 C42.9,27 42.4,26.9 42,26.8 L42,10 C42.6,9.7 43.5,9.5 44.5,9.5 L44.7,12.6 L44.8,12.6 C45.6,10.5 47,9.1 49.7,9.1 Z" id="Path"></path>
                <path d="M57,19.3 C57.1,23.2 59.6,24.8 63.4,24.8 C65.6,24.8 67.4,24.3 68.8,23.4 C68.9,24.4 68.5,25.7 68,26.3 C66.9,27 65,27.6 62.7,27.6 C57,27.6 53.8,24 53.8,18.5 C53.8,13 57,9 62.3,9 C67,9 69.2,12.1 69.2,16.4 C69.2,17.5 69.1,18.4 68.8,19.3 L57,19.3 Z M66,16.7 C66.2,14.4 65.5,11.7 62.1,11.7 C59.1,11.7 57.3,13.7 57,16.7 L66,16.7 Z" id="Shape" fill-rule="nonzero"></path>
                <path d="M81.3,9.8 L81.3,5.9 C82,5.3 83.2,5 84.4,4.9 L84.4,9.8 L89.6,9.8 C89.7,10.1 89.8,10.5 89.8,11.2 C89.8,11.9 89.7,12.3 89.6,12.6 L84.4,12.6 L84.4,21.7 C84.4,23.6 84.9,24.7 87,24.7 C88.1,24.7 89.3,24.3 90.4,23.4 C90.5,24.5 90.2,25.9 89.7,26.6 C88.8,27.2 87.6,27.6 86.1,27.6 C82.7,27.6 81.3,25.8 81.3,22.1 L81.3,12.6 L78.7,12.6 C78.7,11.5 78.8,10.5 79.1,9.8 L81.3,9.8 Z" id="Path"></path>
                <path d="M108.9,18.1 C108.9,24.3 105.8,27.6 100.8,27.6 C95.5,27.6 92.7,24.4 92.7,18.1 C92.7,12.4 95.9,9.1 100.8,9.1 C105.8,9.1 108.9,12.3 108.9,18.1 Z M100.8,25 C104.1,25 105.7,22.4 105.7,18.2 C105.7,14.3 103.9,11.9 100.8,11.9 C97.5,11.9 95.8,14.4 95.8,18.2 C95.8,22.4 97.5,25 100.8,25 Z" id="Shape" fill-rule="nonzero"></path>
                <path d="M121.2,27 L121.2,2.4 C121.5,2.2 122.1,2.2 122.8,2.2 C123.5,2.2 124.1,2.3 124.4,2.4 L124.4,24 L136.5,24 C136.7,24.4 136.7,24.9 136.7,25.5 C136.7,26.1 136.6,26.6 136.5,27 L121.2,27 Z" id="Path"></path>
                <path d="M144.5,3.7 C144.5,5.1 143.7,5.8 142.4,5.8 C141,5.8 140.3,5.1 140.3,3.7 C140.3,2.4 141.2,1.6 142.4,1.6 C143.7,1.7 144.5,2.4 144.5,3.7 Z M140.9,10 C141.2,9.8 141.7,9.8 142.5,9.8 C143.2,9.8 143.7,9.9 144,10 L144,26.8 C143.7,27 143.2,27 142.5,27 C141.8,27 141.3,26.9 140.9,26.8 L140.9,10 Z" id="Shape" fill-rule="nonzero"></path>
                <path d="M155.9,24.9 C156.1,23.6 156.5,22.2 156.8,21.3 L160.9,9.9 C161.1,9.8 161.5,9.7 162.2,9.7 C163.1,9.7 163.6,9.9 164,10.1 L157.7,26.8 C156.6,27.1 155.3,27.2 153.9,27.2 L147.4,10 C147.8,9.8 148.4,9.6 149.3,9.6 C149.9,9.6 150.3,9.7 150.5,9.8 L154.7,21.2 C155.1,22.2 155.4,23.5 155.7,24.8 L155.9,24.8 L155.9,24.9 Z" id="Path"></path>
                <path d="M168.9,19.3 C169,23.2 171.5,24.8 175.3,24.8 C177.5,24.8 179.3,24.3 180.7,23.4 C180.8,24.4 180.4,25.7 179.9,26.3 C178.8,27 176.9,27.6 174.6,27.6 C168.9,27.6 165.7,24 165.7,18.5 C165.7,13 168.9,9 174.2,9 C178.9,9 181.1,12.1 181.1,16.4 C181.1,17.5 181,18.4 180.7,19.3 L168.9,19.3 Z M178,16.7 C178.2,14.4 177.5,11.7 174.1,11.7 C171.1,11.7 169.3,13.7 169,16.7 L178,16.7 Z" id="Shape" fill-rule="nonzero"></path>
                <path d="M190.1,2.4 C190.4,2.2 191.1,2.1 191.8,2.1 C192.7,2.1 193.3,2.2 193.6,2.4 L198.4,11.4 C199.1,12.7 199.6,14.1 200,15.6 L200.1,15.6 C200.5,14.1 201.2,12.5 201.8,11.3 L206.6,2.4 C207,2.2 207.5,2.1 208.4,2.1 C209.1,2.1 209.8,2.2 210,2.4 L201.6,17.8 L201.6,26.7 C201.3,26.9 200.8,26.9 200,26.9 C199.2,26.9 198.7,26.8 198.4,26.7 L198.4,17.8 L190.1,2.4 Z" id="Path"></path>
                <path d="M225.9,18.1 C225.9,24.3 222.8,27.6 217.8,27.6 C212.5,27.6 209.7,24.4 209.7,18.1 C209.7,12.4 212.9,9.1 217.8,9.1 C222.7,9.1 225.9,12.3 225.9,18.1 Z M217.8,25 C221.1,25 222.7,22.4 222.7,18.2 C222.7,14.3 220.9,11.9 217.8,11.9 C214.5,11.9 212.8,14.4 212.8,18.2 C212.8,22.4 214.5,25 217.8,25 Z" id="Shape" fill-rule="nonzero"></path>
                <path d="M242.1,25 C241.5,26.2 239.9,27.7 236.4,27.7 C233.6,27.7 230.4,26.7 230.4,20.9 L230.4,10.3 C231.1,9.9 232.2,9.7 233.5,9.7 L233.5,20.4 C233.5,23.3 234.4,24.9 237.3,24.9 C239.6,24.9 241.1,23.9 241.9,22.7 L241.9,10 C242.2,9.8 242.7,9.8 243.5,9.8 C244.2,9.8 244.7,9.9 245,10 L245,26.8 C244.4,27.2 243.6,27.3 242.6,27.3 L242.2,25.1 L242.1,25.1 L242.1,25 Z" id="Path"></path>
                <path d="M258.9,9.1 C259.7,9.1 260.4,9.2 260.8,9.4 C261.1,9.9 261.3,10.5 261.3,11.4 C261.3,12 261.2,12.5 261.1,12.7 C260.5,12.4 259.7,12.2 258.9,12.2 C256.7,12.2 255.2,13.6 254.3,16.2 L254.3,26.8 C254,27 253.5,27 252.8,27 C252.1,27 251.6,26.9 251.2,26.8 L251.2,10 C251.8,9.7 252.7,9.5 253.7,9.5 L253.9,12.6 L254,12.6 C254.8,10.5 256.2,9.1 258.9,9.1 Z" id="Path"></path>
                <path d="M272.3,27 L272.3,2.4 C272.6,2.2 273.2,2.2 273.9,2.2 C274.7,2.2 275.2,2.3 275.5,2.4 L275.5,24 L287.6,24 C287.8,24.4 287.8,24.9 287.8,25.5 C287.8,26.1 287.7,26.6 287.6,27 L272.3,27 Z" id="Path"></path>
                <path d="M295.6,3.7 C295.6,5.1 294.8,5.8 293.5,5.8 C292.1,5.8 291.4,5.1 291.4,3.7 C291.4,2.4 292.3,1.6 293.5,1.6 C294.8,1.7 295.6,2.4 295.6,3.7 Z M292,10 C292.3,9.8 292.8,9.8 293.6,9.8 C294.3,9.8 294.8,9.9 295.1,10 L295.1,26.8 C294.8,27 294.3,27 293.6,27 C292.9,27 292.4,26.9 292,26.8 L292,10 Z" id="Shape" fill-rule="nonzero"></path>
                <path d="M301.8,9.8 L301.8,6.9 C301.8,1.8 304.2,0.3 307.5,0.3 C309,0.3 310.1,0.6 311,1.3 C311.5,2 311.7,3.3 311.5,4.3 C310.4,3.4 309.3,3.1 308.1,3.1 C305.6,3.1 304.9,4.5 304.9,6.7 L304.9,9.8 L309.7,9.8 C309.8,10.1 309.9,10.5 309.9,11.2 C309.9,11.9 309.8,12.3 309.7,12.6 L304.9,12.6 L304.9,26.8 C304.6,27 304.1,27 303.4,27 C302.7,27 302.2,26.9 301.8,26.8 L301.8,12.6 L299.1,12.6 C299.1,11.5 299.2,10.5 299.5,9.8 L301.8,9.8 Z" id="Path"></path>
                <path d="M314.6,19.3 C314.7,23.2 317.2,24.8 321,24.8 C323.2,24.8 325,24.3 326.4,23.4 C326.5,24.4 326.1,25.7 325.6,26.3 C324.5,27 322.6,27.6 320.3,27.6 C314.6,27.6 311.4,24 311.4,18.5 C311.4,13 314.6,9 319.9,9 C324.6,9 326.8,12.1 326.8,16.4 C326.8,17.5 326.7,18.4 326.4,19.3 L314.6,19.3 Z M323.7,16.7 C323.9,14.4 323.2,11.7 319.7,11.7 C316.7,11.7 314.9,13.7 314.6,16.7 L323.7,16.7 Z" id="Shape" fill-rule="nonzero"></path>
                <path d="M334.8,25.3 C334.8,26.7 334,27.5 332.7,27.5 C331.3,27.5 330.6,26.8 330.6,25.4 C330.6,24 331.5,23.3 332.7,23.3 C334,23.3 334.8,24 334.8,25.3 Z" id="Path"></path>
            </g>
        </g>
    </g>
</svg>